<svg xmlns="http://www.w3.org/2000/svg" width="810" viewBox="0 0 810 810" height="810" version="1.0"><defs><clipPath id="a"><path d="M 229.433594 268.398438 L 398.96875 268.398438 L 398.96875 542.285156 L 229.433594 542.285156 Z M 229.433594 268.398438"/></clipPath><clipPath id="b"><path d="M 411 268.398438 L 581.554688 268.398438 L 581.554688 542.285156 L 411 542.285156 Z M 411 268.398438"/></clipPath></defs><path fill="#A31627" d="M 685.453125 431.058594 L 702.351562 414.230469 L 686.457031 396.46875 L 701.1875 377.710938 L 683.246094 362.007812 L 695.5625 341.582031 L 675.828125 328.203125 L 685.523438 306.410156 L 664.28125 295.574219 L 671.222656 272.75 L 648.804688 264.621094 L 652.886719 241.109375 L 629.636719 235.796875 L 630.796875 211.976562 L 607.074219 209.542969 L 605.335938 185.753906 L 581.480469 186.230469 L 576.847656 162.839844 L 553.242188 166.226562 L 545.773438 143.589844 L 522.765625 149.84375 L 512.550781 128.292969 L 490.488281 137.355469 L 477.691406 117.226562 L 456.90625 128.945312 L 441.730469 110.546875 L 422.566406 124.730469 L 405.253906 108.320312 L 387.941406 124.730469 L 368.78125 110.546875 L 353.59375 128.945312 L 332.808594 117.226562 L 320.015625 137.355469 L 297.949219 128.292969 L 287.746094 149.847656 L 264.726562 143.589844 L 257.246094 166.234375 L 233.648438 162.835938 L 229.007812 186.230469 L 205.164062 185.753906 L 203.425781 209.542969 L 179.699219 211.976562 L 180.867188 235.796875 L 157.621094 241.109375 L 161.695312 264.621094 L 139.28125 272.746094 L 146.210938 295.566406 L 124.980469 306.410156 L 134.675781 328.203125 L 114.9375 341.582031 L 127.253906 362.007812 L 109.316406 377.710938 L 124.046875 396.46875 L 108.148438 414.230469 L 125.046875 431.070312 L 111.417969 450.640625 L 130.261719 465.28125 L 119.164062 486.386719 L 139.652344 498.59375 L 131.246094 520.910156 L 153.09375 530.484375 L 147.503906 553.671875 L 170.363281 560.480469 L 167.667969 584.175781 L 191.183594 588.132812 L 191.394531 611.976562 L 215.222656 613.03125 L 218.347656 636.664062 L 242.125 634.816406 L 248.117188 657.898438 L 271.480469 653.128906 L 280.28125 675.296875 L 302.882812 667.695312 L 314.355469 688.613281 L 335.835938 678.273438 L 349.800781 697.613281 L 369.847656 684.6875 L 386.070312 702.171875 L 405.253906 686.1875 L 424.429688 702.179688 L 440.664062 684.6875 L 460.707031 697.613281 L 474.667969 678.273438 L 496.152344 688.609375 L 507.621094 667.695312 L 530.21875 675.296875 L 539.003906 653.128906 L 562.382812 657.898438 L 568.378906 634.816406 L 592.152344 636.664062 L 595.269531 613.03125 L 619.101562 611.976562 L 619.3125 588.132812 L 642.839844 584.1875 L 640.144531 560.480469 L 662.996094 553.671875 L 657.410156 530.484375 L 679.253906 520.910156 L 670.84375 498.59375 L 691.335938 486.386719 L 680.246094 465.28125 L 699.082031 450.640625 Z M 685.453125 431.058594"/><path fill="#EE4036" d="M 405.25 644.636719 C 272.046875 644.636719 163.675781 535.980469 163.675781 402.429688 C 163.675781 268.875 272.042969 160.21875 405.25 160.21875 C 538.449219 160.21875 646.824219 268.875 646.824219 402.429688 C 646.824219 535.980469 538.449219 644.636719 405.25 644.636719 Z M 405.25 175.789062 C 280.628906 175.789062 179.246094 277.460938 179.246094 402.429688 C 179.246094 527.390625 280.628906 629.066406 405.25 629.066406 C 529.867188 629.066406 631.25 527.394531 631.25 402.429688 C 631.25 277.460938 529.867188 175.789062 405.25 175.789062 Z M 405.25 175.789062" fill-opacity=".698"/><path fill="#EE4036" d="M 405.25 663.691406 C 261.191406 663.691406 143.988281 546.488281 143.988281 402.429688 C 143.988281 258.367188 261.191406 141.167969 405.25 141.167969 C 549.308594 141.167969 666.511719 258.367188 666.511719 402.429688 C 666.511719 546.488281 549.308594 663.691406 405.25 663.691406 Z M 405.25 152.84375 C 267.628906 152.84375 155.667969 264.808594 155.667969 402.429688 C 155.667969 540.046875 267.628906 652.011719 405.25 652.011719 C 542.871094 652.011719 654.832031 540.046875 654.832031 402.429688 C 654.828125 264.808594 542.867188 152.84375 405.25 152.84375 Z M 405.25 152.84375" fill-opacity=".698"/><g clip-path="url(#a)"><path fill="#FFF" d="M 253.347656 294.53125 C 268.144531 278.980469 286.847656 270.515625 309.410156 269.457031 C 313.273438 268.765625 317.5 268.398438 322.09375 268.398438 C 346.402344 268.398438 367.585938 279.671875 381.652344 297.335938 C 389.414062 306.167969 393.964844 316.0625 396.125 327.335938 C 397.550781 332.996094 398.238281 338.605469 398.238281 344.265625 C 398.238281 386.273438 364.417969 420.132812 322.460938 420.132812 C 305.550781 420.132812 289.699219 414.476562 276.96875 404.953125 L 276.96875 407.757812 C 276.96875 448.015625 307.617188 488.226562 368.96875 528.484375 L 360.144531 542.238281 C 273.105469 488.273438 229.726562 428.96875 229.726562 364.417969 C 229.035156 334.742188 237.125 311.464844 253.347656 294.53125 Z M 253.347656 294.53125"/></g><g clip-path="url(#b)"><path fill="#FFF" d="M 493.410156 269.457031 C 497.636719 268.765625 501.546875 268.398438 505.773438 268.398438 C 547.730469 268.398438 581.550781 302.257812 581.550781 344.265625 C 581.550781 386.273438 547.730469 420.179688 505.773438 420.179688 C 488.125 420.179688 472.269531 414.199219 459.222656 404.308594 C 459.222656 405.367188 458.851562 406.792969 458.851562 407.851562 C 458.851562 448.109375 489.507812 488.316406 550.855469 528.578125 L 542.03125 542.332031 C 454.996094 488.273438 411.65625 428.96875 411.65625 364.417969 C 411.65625 334.789062 419.746094 311.464844 435.96875 294.53125 C 451.132812 278.613281 470.523438 270.148438 493.410156 269.457031 Z M 493.410156 269.457031"/></g></svg>